<?xml version="1.0" encoding="utf-8"?>
<svg viewBox="175 142 150 250" xmlns="http://www.w3.org/2000/svg">
  <rect x="175" y="142" width="150" height="250" style="stroke: rgb(0, 0, 0); fill: rgb(78, 31, 0); stroke-opacity: 0;"/>
  <path d="M 50.284402954101566 371.3210024414062 L 61.504402954101565 371.3210024414062 L 61.504402954101565 373.56500244140625 L 47.836402954101565 373.56500244140625 L 47.836402954101565 349.49300244140625 L 50.284402954101566 349.49300244140625 Z M 91.64440295410157 361.52900244140625 Q 91.64440295410157 359.45500244140624 90.96440295410156 357.56800244140624 Q 90.28440295410157 355.68100244140624 89.00940295410156 354.25300244140624 Q 87.73440295410157 352.82500244140624 85.89840295410156 351.9750024414063 Q 84.06240295410157 351.12500244140625 81.75040295410156 351.12500244140625 Q 79.43840295410156 351.12500244140625 77.60240295410156 351.9750024414063 Q 75.76640295410157 352.82500244140624 74.49140295410156 354.25300244140624 Q 73.21640295410157 355.68100244140624 72.53640295410156 357.56800244140624 Q 71.85640295410157 359.45500244140624 71.85640295410157 361.52900244140625 Q 71.85640295410157 363.60300244140626 72.53640295410156 365.49000244140626 Q 73.21640295410157 367.37700244140626 74.49140295410156 368.80500244140626 Q 75.76640295410157 370.23300244140626 77.60240295410156 371.0830024414062 Q 79.43840295410156 371.93300244140624 81.75040295410156 371.93300244140624 Q 84.06240295410157 371.93300244140624 85.89840295410156 371.0830024414062 Q 87.73440295410157 370.23300244140626 89.00940295410156 368.80500244140626 Q 90.28440295410157 367.37700244140626 90.96440295410156 365.49000244140626 Q 91.64440295410157 363.60300244140626 91.64440295410157 361.52900244140625 Z M 94.29640295410157 361.52900244140625 Q 94.29640295410157 364.28300244140627 93.34440295410157 366.5950024414062 Q 92.39240295410156 368.90700244140623 90.70940295410156 370.5900024414062 Q 89.02640295410157 372.2730024414063 86.73140295410157 373.2250024414063 Q 84.43640295410157 374.1770024414063 81.75040295410156 374.1770024414063 Q 79.06440295410157 374.1770024414063 76.76940295410157 373.2250024414063 Q 74.47440295410156 372.2730024414063 72.79140295410156 370.5900024414062 Q 71.10840295410156 368.90700244140623 70.15640295410157 366.5950024414062 Q 69.20440295410157 364.28300244140627 69.20440295410157 361.52900244140625 Q 69.20440295410157 358.77500244140623 70.15640295410157 356.4630024414063 Q 71.10840295410156 354.15100244140626 72.79140295410156 352.46800244140627 Q 74.47440295410156 350.7850024414063 76.76940295410157 349.8330024414062 Q 79.06440295410157 348.8810024414062 81.75040295410156 348.8810024414062 Q 84.43640295410157 348.8810024414062 86.73140295410157 349.8330024414062 Q 89.02640295410157 350.7850024414063 90.70940295410156 352.46800244140627 Q 92.39240295410156 354.15100244140626 93.34440295410157 356.4630024414063 Q 94.29640295410157 358.77500244140623 94.29640295410157 361.52900244140625 Z M 125.00996545410156 369.75700244140626 Q 124.39796545410157 370.67500244140626 123.49696545410157 371.49100244140624 Q 122.59596545410156 372.30700244140627 121.43996545410157 372.90200244140624 Q 120.28396545410156 373.49700244140627 118.94096545410156 373.83700244140624 Q 117.59796545410157 374.1770024414063 116.10196545410156 374.1770024414063 Q 113.41596545410157 374.1770024414063 111.12096545410157 373.2250024414063 Q 108.82596545410156 372.2730024414063 107.14296545410156 370.5900024414062 Q 105.45996545410156 368.90700244140623 104.50796545410157 366.5950024414062 Q 103.55596545410157 364.28300244140627 103.55596545410157 361.52900244140625 Q 103.55596545410157 358.77500244140623 104.50796545410157 356.4630024414063 Q 105.45996545410156 354.15100244140626 107.14296545410156 352.46800244140627 Q 108.82596545410156 350.7850024414063 111.12096545410157 349.8330024414062 Q 113.41596545410157 348.8810024414062 116.10196545410156 348.8810024414062 Q 118.34596545410156 348.8810024414062 120.58996545410156 349.76500244140624 Q 122.83396545410156 350.64900244140625 124.43196545410157 352.6890024414063 L 122.28996545410156 354.28700244140623 Q 121.91596545410157 353.70900244140626 121.26996545410157 353.1310024414062 Q 120.62396545410157 352.55300244140625 119.79096545410157 352.11100244140624 Q 118.95796545410157 351.66900244140623 118.00596545410156 351.39700244140624 Q 117.05396545410156 351.12500244140625 116.10196545410156 351.12500244140625 Q 113.78996545410156 351.12500244140625 111.95396545410156 351.9750024414063 Q 110.11796545410157 352.82500244140624 108.84296545410156 354.25300244140624 Q 107.56796545410157 355.68100244140624 106.88796545410156 357.56800244140624 Q 106.20796545410157 359.45500244140624 106.20796545410157 361.52900244140625 Q 106.20796545410157 363.60300244140626 106.88796545410156 365.49000244140626 Q 107.56796545410157 367.37700244140626 108.84296545410156 368.80500244140626 Q 110.11796545410157 370.23300244140626 111.95396545410156 371.0830024414062 Q 113.78996545410156 371.93300244140624 116.10196545410156 371.93300244140624 Q 117.05396545410156 371.93300244140624 117.98896545410156 371.76300244140623 Q 118.92396545410156 371.59300244140627 119.82496545410156 371.18500244140625 Q 120.72596545410155 370.77700244140624 121.52496545410156 370.08000244140624 Q 122.32396545410157 369.38300244140623 123.00396545410156 368.32900244140626 Z M 138.28746545410155 364.99700244140627 L 148.72546545410157 364.99700244140627 L 143.52346545410157 352.34900244140624 Z M 134.71746545410156 373.56500244140625 L 131.86146545410156 373.56500244140625 L 142.33346545410157 349.49300244140625 L 144.71346545410157 349.49300244140625 L 155.18546545410157 373.56500244140625 L 152.32946545410155 373.56500244140625 L 149.67746545410157 367.24100244140624 L 137.36946545410157 367.24100244140624 Z M 166.89377795410155 371.3210024414062 L 178.11377795410158 371.3210024414062 L 178.11377795410158 373.56500244140625 L 164.44577795410157 373.56500244140625 L 164.44577795410157 349.49300244140625 L 166.89377795410155 349.49300244140625 Z" transform="matrix(1, 0, 0, 1, 135.61900329589844, -129.74368286132812)" style="fill: rgb(255, 218, 0); white-space: pre;"/>
  <path transform="matrix(1, 0, 0, 1, 135.61900329589844, -129.74368286132812)" style="fill: rgb(255, 218, 0); white-space: pre;"/>
  <path d="M 85.37093420410156 387.47100244140626 Q 83.77293420410156 385.12500244140625 80.71293420410156 385.12500244140625 Q 79.76093420410156 385.12500244140625 78.84293420410157 385.38000244140625 Q 77.92493420410156 385.63500244140624 77.19393420410157 386.16200244140623 Q 76.46293420410156 386.6890024414063 76.02093420410156 387.52200244140624 Q 75.57893420410156 388.35500244140627 75.57893420410156 389.4770024414062 Q 75.57893420410156 391.10900244140623 76.49693420410156 392.01000244140624 Q 77.41493420410157 392.91100244140625 78.77493420410156 393.4890024414062 Q 80.13493420410157 394.06700244140626 81.74993420410156 394.52600244140626 Q 83.36493420410156 394.98500244140627 84.72493420410156 395.75000244140625 Q 86.08493420410156 396.51500244140624 87.00293420410156 397.7730024414062 Q 87.92093420410157 399.03100244140626 87.92093420410157 401.20700244140625 Q 87.92093420410157 402.83900244140625 87.22393420410157 404.1480024414063 Q 86.52693420410156 405.45700244140625 85.38793420410157 406.34100244140626 Q 84.24893420410156 407.2250024414063 82.83793420410156 407.7010024414063 Q 81.42693420410157 408.1770024414063 79.99893420410156 408.1770024414063 Q 77.78893420410157 408.1770024414063 75.79993420410156 407.34400244140625 Q 73.81093420410156 406.5110024414063 72.41693420410157 404.6070024414062 L 74.62693420410156 403.00900244140627 Q 75.40893420410157 404.33500244140623 76.80293420410156 405.13400244140627 Q 78.19693420410157 405.93300244140624 80.10093420410156 405.93300244140624 Q 81.01893420410157 405.93300244140624 81.93693420410156 405.64400244140626 Q 82.85493420410157 405.35500244140627 83.58593420410156 404.79400244140623 Q 84.31693420410156 404.23300244140626 84.79293420410156 403.4170024414062 Q 85.26893420410157 402.60100244140625 85.26893420410157 401.5470024414062 Q 85.26893420410157 400.28900244140624 84.74193420410157 399.45600244140627 Q 84.21493420410157 398.62300244140624 83.34793420410156 398.06200244140626 Q 82.48093420410156 397.50100244140623 81.37593420410157 397.12700244140626 Q 80.27093420410156 396.75300244140624 79.09793420410156 396.37900244140627 Q 77.92493420410156 396.00500244140625 76.81993420410156 395.52900244140625 Q 75.71493420410157 395.05300244140625 74.84793420410156 394.32200244140626 Q 73.98093420410156 393.59100244140626 73.45393420410156 392.48600244140624 Q 72.92693420410156 391.3810024414062 72.92693420410156 389.7150024414062 Q 72.92693420410156 387.98100244140625 73.58993420410157 386.6890024414063 Q 74.25293420410156 385.39700244140624 75.35793420410157 384.5470024414062 Q 76.46293420410156 383.69700244140626 77.85693420410156 383.28900244140624 Q 79.25093420410157 382.8810024414062 80.71293420410156 382.8810024414062 Q 82.75293420410156 382.8810024414062 84.41893420410156 383.52700244140624 Q 86.08493420410156 384.17300244140625 87.51293420410157 385.80500244140626 Z M 101.32737170410157 405.3210024414062 L 114.21337170410156 405.3210024414062 L 114.21337170410156 407.56500244140625 L 98.87937170410156 407.56500244140625 L 98.87937170410156 383.49300244140625 L 113.80537170410156 383.49300244140625 L 113.80537170410156 385.7370024414063 L 101.32737170410157 385.7370024414063 L 101.32737170410157 393.93100244140624 L 112.98937170410156 393.93100244140624 L 112.98937170410156 396.17500244140626 L 101.32737170410157 396.17500244140626 Z M 136.90943420410156 403.07700244140625 L 145.03543420410156 383.49300244140625 L 148.77543420410157 383.49300244140625 L 148.77543420410157 407.56500244140625 L 146.32743420410156 407.56500244140625 L 146.32743420410156 386.75700244140626 L 146.25943420410155 386.75700244140626 L 137.55543420410157 407.56500244140625 L 136.26343420410157 407.56500244140625 L 127.55943420410156 386.75700244140626 L 127.49143420410157 386.75700244140626 L 127.49143420410157 407.56500244140625 L 125.04343420410156 407.56500244140625 L 125.04343420410156 383.49300244140625 L 128.78343420410155 383.49300244140625 Z" transform="matrix(1, 0, 0, 1, 135.61900329589844, -129.74368286132812)" style="fill: rgb(255, 218, 0); white-space: pre;"/>
  <path transform="matrix(1, 0, 0, 1, 135.61900329589844, -129.74368286132812)" style="fill: rgb(255, 218, 0); white-space: pre;"/>
  <path d="M 60.526590454101566 441.56500244140625 L 58.078590454101565 441.56500244140625 L 58.078590454101565 417.49300244140625 L 72.59659045410156 417.49300244140625 L 72.59659045410156 419.7370024414063 L 60.526590454101566 419.7370024414063 L 60.526590454101566 427.93100244140624 L 71.74659045410156 427.93100244140624 L 71.74659045410156 430.17500244140626 L 60.526590454101566 430.17500244140626 Z M 103.78502795410157 429.52900244140625 Q 103.78502795410157 427.45500244140624 103.10502795410156 425.56800244140624 Q 102.42502795410157 423.68100244140624 101.15002795410156 422.25300244140624 Q 99.87502795410157 420.82500244140624 98.03902795410156 419.9750024414063 Q 96.20302795410157 419.12500244140625 93.89102795410156 419.12500244140625 Q 91.57902795410156 419.12500244140625 89.74302795410156 419.9750024414063 Q 87.90702795410157 420.82500244140624 86.63202795410156 422.25300244140624 Q 85.35702795410157 423.68100244140624 84.67702795410156 425.56800244140624 Q 83.99702795410157 427.45500244140624 83.99702795410157 429.52900244140625 Q 83.99702795410157 431.60300244140626 84.67702795410156 433.49000244140626 Q 85.35702795410157 435.37700244140626 86.63202795410156 436.80500244140626 Q 87.90702795410157 438.23300244140626 89.74302795410156 439.0830024414062 Q 91.57902795410156 439.93300244140624 93.89102795410156 439.93300244140624 Q 96.20302795410157 439.93300244140624 98.03902795410156 439.0830024414062 Q 99.87502795410157 438.23300244140626 101.15002795410156 436.80500244140626 Q 102.42502795410157 435.37700244140626 103.10502795410156 433.49000244140626 Q 103.78502795410157 431.60300244140626 103.78502795410157 429.52900244140625 Z M 106.43702795410157 429.52900244140625 Q 106.43702795410157 432.28300244140627 105.48502795410157 434.5950024414062 Q 104.53302795410156 436.90700244140623 102.85002795410156 438.5900024414062 Q 101.16702795410157 440.2730024414063 98.87202795410157 441.2250024414063 Q 96.57702795410157 442.1770024414063 93.89102795410156 442.1770024414063 Q 91.20502795410157 442.1770024414063 88.91002795410157 441.2250024414063 Q 86.61502795410156 440.2730024414063 84.93202795410156 438.5900024414062 Q 83.24902795410156 436.90700244140623 82.29702795410157 434.5950024414062 Q 81.34502795410157 432.28300244140627 81.34502795410157 429.52900244140625 Q 81.34502795410157 426.77500244140623 82.29702795410157 424.4630024414063 Q 83.24902795410156 422.15100244140626 84.93202795410156 420.46800244140627 Q 86.61502795410156 418.7850024414063 88.91002795410157 417.8330024414062 Q 91.20502795410157 416.8810024414062 93.89102795410156 416.8810024414062 Q 96.57702795410157 416.8810024414062 98.87202795410157 417.8330024414062 Q 101.16702795410157 418.7850024414063 102.85002795410156 420.46800244140627 Q 104.53302795410156 422.15100244140626 105.48502795410157 424.4630024414063 Q 106.43702795410157 426.77500244140623 106.43702795410157 429.52900244140625 Z M 125.05440295410156 441.56500244140625 L 122.60640295410157 441.56500244140625 L 122.60640295410157 419.7370024414063 L 114.54840295410156 419.7370024414063 L 114.54840295410156 417.49300244140625 L 133.11240295410155 417.49300244140625 L 133.11240295410155 419.7370024414063 L 125.05440295410156 419.7370024414063 Z M 163.66002795410157 429.52900244140625 Q 163.66002795410157 427.45500244140624 162.98002795410156 425.56800244140624 Q 162.30002795410155 423.68100244140624 161.02502795410157 422.25300244140624 Q 159.75002795410157 420.82500244140624 157.91402795410156 419.9750024414063 Q 156.07802795410157 419.12500244140625 153.76602795410156 419.12500244140625 Q 151.45402795410158 419.12500244140625 149.61802795410156 419.9750024414063 Q 147.78202795410155 420.82500244140624 146.50702795410157 422.25300244140624 Q 145.23202795410157 423.68100244140624 144.55202795410156 425.56800244140624 Q 143.87202795410155 427.45500244140624 143.87202795410155 429.52900244140625 Q 143.87202795410155 431.60300244140626 144.55202795410156 433.49000244140626 Q 145.23202795410157 435.37700244140626 146.50702795410157 436.80500244140626 Q 147.78202795410155 438.23300244140626 149.61802795410156 439.0830024414062 Q 151.45402795410158 439.93300244140624 153.76602795410156 439.93300244140624 Q 156.07802795410157 439.93300244140624 157.91402795410156 439.0830024414062 Q 159.75002795410157 438.23300244140626 161.02502795410157 436.80500244140626 Q 162.30002795410155 435.37700244140626 162.98002795410156 433.49000244140626 Q 163.66002795410157 431.60300244140626 163.66002795410157 429.52900244140625 Z M 166.31202795410155 429.52900244140625 Q 166.31202795410155 432.28300244140627 165.36002795410155 434.5950024414062 Q 164.40802795410156 436.90700244140623 162.72502795410156 438.5900024414062 Q 161.04202795410157 440.2730024414063 158.74702795410155 441.2250024414063 Q 156.45202795410157 442.1770024414063 153.76602795410156 442.1770024414063 Q 151.08002795410155 442.1770024414063 148.78502795410157 441.2250024414063 Q 146.49002795410155 440.2730024414063 144.80702795410156 438.5900024414062 Q 143.12402795410156 436.90700244140623 142.17202795410157 434.5950024414062 Q 141.22002795410157 432.28300244140627 141.22002795410157 429.52900244140625 Q 141.22002795410157 426.77500244140623 142.17202795410157 424.4630024414063 Q 143.12402795410156 422.15100244140626 144.80702795410156 420.46800244140627 Q 146.49002795410155 418.7850024414063 148.78502795410157 417.8330024414062 Q 151.08002795410155 416.8810024414062 153.76602795410156 416.8810024414062 Q 156.45202795410157 416.8810024414062 158.74702795410155 417.8330024414062 Q 161.04202795410157 418.7850024414063 162.72502795410156 420.46800244140627 Q 164.40802795410156 422.15100244140626 165.36002795410155 424.4630024414063 Q 166.31202795410155 426.77500244140623 166.31202795410155 429.52900244140625 Z" transform="matrix(1, 0, 0, 1, 135.61900329589844, -129.74368286132812)" style="fill: rgb(255, 218, 0); white-space: pre;"/>
</svg>
